<svg width="21" height="20" viewBox="0 0 21 20" fill="none" xmlns="http://www.w3.org/2000/svg">
<path d="M18.6783 1.45696C16.4967 -0.485654 12.9474 -0.485654 10.7658 1.45696L2.43486 8.87532C2.17775 9.10426 2.17775 9.47516 2.43486 9.70411C2.69197 9.93305 3.10849 9.93305 3.3656 9.70411L11.6965 2.28575C13.3137 0.846845 16.1303 0.846845 17.7475 2.28575C19.4155 3.77102 19.4155 6.18813 17.7475 7.6734L6.11452 18.1488C5.11952 19.0348 3.38596 19.0348 2.39099 18.1488C1.36449 17.2347 1.36449 15.7477 2.39099 14.8337L13.5586 4.77208C13.9314 4.44012 14.5819 4.44012 14.9547 4.77208C15.3397 5.11489 15.3397 5.67298 14.9547 6.01583L4.25309 15.6624C4.03112 15.8601 4.03112 16.2935 4.25309 16.4912C4.5102 16.7202 4.92672 16.7202 5.18383 16.4912L15.8854 6.84458C16.7841 6.04438 16.7841 4.74344 15.8854 3.94329C15.0151 3.16833 13.4969 3.16946 12.6279 3.94329L1.46025 14.0048C-0.0674806 15.3652 -0.0674806 17.6171 1.46025 18.9775C2.20653 19.6421 3.19829 20 4.25304 20C5.3078 20 6.29964 19.6421 7.04526 18.9776L18.6783 8.50215C20.8598 6.55954 20.8598 3.39954 18.6783 1.45696Z" fill="#8A8A8A"/>
</svg>
