<svg width="21" height="23" viewBox="0 0 21 23" fill="none" xmlns="http://www.w3.org/2000/svg">
<path d="M17.6553 18.7093V12.6002C17.6553 12.2964 17.5346 12.005 17.3198 11.7902C17.105 11.5754 16.8136 11.4547 16.5098 11.4547C16.206 11.4547 15.9147 11.5754 15.6999 11.7902C15.4851 12.005 15.3644 12.2964 15.3644 12.6002V18.7093C15.3644 19.0131 15.4851 19.3044 15.6999 19.5192C15.9147 19.734 16.206 19.8547 16.5098 19.8547C16.8136 19.8547 17.105 19.734 17.3198 19.5192C17.5346 19.3044 17.6553 19.0131 17.6553 18.7093Z" fill="#4C4C4C"/>
<path d="M11.6454 18.7093V12.6002C11.6454 12.2964 11.5247 12.005 11.3099 11.7902C11.0951 11.5754 10.8037 11.4547 10.4999 11.4547C10.1962 11.4547 9.9048 11.5754 9.68999 11.7902C9.47517 12.005 9.35449 12.2964 9.35449 12.6002V18.7093C9.35449 19.0131 9.47517 19.3044 9.68999 19.5192C9.9048 19.734 10.1962 19.8547 10.4999 19.8547C10.8037 19.8547 11.0951 19.734 11.3099 19.5192C11.5247 19.3044 11.6454 19.0131 11.6454 18.7093Z" fill="#4C4C4C"/>
<path d="M5.63564 18.7093V12.6002C5.63564 12.2964 5.51495 12.005 5.30014 11.7902C5.08533 11.5754 4.79397 11.4547 4.49018 11.4547C4.18639 11.4547 3.89504 11.5754 3.68022 11.7902C3.46541 12.005 3.34473 12.2964 3.34473 12.6002V18.7093C3.34473 19.0131 3.46541 19.3044 3.68022 19.5192C3.89504 19.734 4.18639 19.8547 4.49018 19.8547C4.79397 19.8547 5.08533 19.734 5.30014 19.5192C5.51495 19.3044 5.63564 19.0131 5.63564 18.7093Z" fill="#4C4C4C"/>
<path d="M19.8545 20.4275H1.14545C0.841661 20.4275 0.55031 20.5482 0.335496 20.763C0.120681 20.9778 0 21.2692 0 21.5729C0 21.8767 0.120681 22.1681 0.335496 22.3829C0.55031 22.5977 0.841661 22.7184 1.14545 22.7184H19.8545C20.1583 22.7184 20.4497 22.5977 20.6645 22.3829C20.8793 22.1681 21 21.8767 21 21.5729C21 21.2692 20.8793 20.9778 20.6645 20.763C20.4497 20.5482 20.1583 20.4275 19.8545 20.4275Z" fill="#4C4C4C"/>
<path d="M20.5533 6.17038L11.0078 0.149112C10.8563 0.0517591 10.6801 0 10.5 0C10.3199 0 10.1437 0.0517591 9.99218 0.149112L0.446728 6.17038C0.309795 6.25642 0.196964 6.37583 0.118824 6.51742C0.0406846 6.659 -0.000202228 6.81812 7.52085e-07 6.97984V9.73657C7.52085e-07 9.98973 0.100569 10.2325 0.279581 10.4115C0.458593 10.5905 0.701385 10.6911 0.954546 10.6911H20.0455C20.2986 10.6911 20.5414 10.5905 20.7204 10.4115C20.8994 10.2325 21 9.98973 21 9.73657V6.97984C21.0002 6.81812 20.9593 6.659 20.8812 6.51742C20.803 6.37583 20.6902 6.25642 20.5533 6.17038ZM10.5 8.16348C10.1979 8.16348 9.90265 8.0739 9.65149 7.90608C9.40033 7.73826 9.20458 7.49974 9.08898 7.22066C8.97339 6.94159 8.94314 6.63451 9.00207 6.33825C9.061 6.04198 9.20646 5.76985 9.42006 5.55626C9.63365 5.34266 9.90578 5.19721 10.202 5.13828C10.4983 5.07935 10.8054 5.10959 11.0845 5.22519C11.3635 5.34078 11.6021 5.53654 11.7699 5.78769C11.9377 6.03885 12.0273 6.33414 12.0273 6.6362C12.0273 7.04126 11.8664 7.42973 11.5799 7.71615C11.2935 8.00257 10.9051 8.16348 10.5 8.16348Z" fill="#4C4C4C"/>
</svg>
