<svg width="25" height="29" viewBox="0 0 25 29" fill="none" xmlns="http://www.w3.org/2000/svg">
<path d="M24.5901 24.2926L22.5296 20.858C21.578 19.2728 21.0751 17.4571 21.0751 15.609V12.6005C21.0751 8.80234 18.5406 5.58984 15.0749 4.55418V2.40011C15.0749 1.07644 13.9984 0 12.6748 0C11.3511 0 10.2747 1.07644 10.2747 2.40011V4.55418C6.80896 5.58984 4.27446 8.80234 4.27446 12.6005V15.609C4.27446 17.4571 3.77162 19.2716 2.82118 20.8569L0.760721 24.2914C0.649117 24.4774 0.646698 24.7078 0.753521 24.8962C0.860344 25.0846 1.05835 25.201 1.27436 25.201H24.0752C24.2912 25.201 24.4904 25.0847 24.5973 24.8974C24.7041 24.7102 24.7005 24.4774 24.5901 24.2926Z" fill="white"/>
<path d="M8.89587 26.401C9.5727 27.8147 11.0056 28.8011 12.6748 28.8011C14.344 28.8011 15.7769 27.8147 16.4538 26.401H8.89587Z" fill="white"/>
</svg>
