<svg width="44" height="16" viewBox="0 0 44 16" fill="none" xmlns="http://www.w3.org/2000/svg">
<path d="M43.4442 6.98256C37.2509 2.41504 29.8359 0 21.9995 0C14.1631 0 6.74815 2.41504 0.55485 6.98256C0.257911 7.20137 0.0599516 7.52684 0.0118757 7.88786C-0.0362001 8.24889 0.0627796 8.61265 0.289019 8.89983L5.46424 15.4612C5.69331 15.7511 6.02701 15.9398 6.40031 15.9863C6.7736 16.0383 7.14973 15.9371 7.44666 15.7183C9.62987 14.1019 12.0676 12.8684 14.6863 12.0506C15.4273 11.8181 15.8345 11.0496 15.5969 10.3303L13.8605 5.10906C19.1234 3.81265 24.8727 3.80991 30.1385 5.10906L28.4021 10.3303C28.1617 11.0496 28.5718 11.8181 29.3127 12.0506C31.9286 12.8684 34.3635 14.1019 36.5523 15.7183C36.8012 15.8988 37.101 16 37.4121 16C37.4743 16 37.5365 15.9945 37.5987 15.9863C37.972 15.9371 38.3085 15.7511 38.5348 15.4639L43.71 8.89983C43.9362 8.61265 44.038 8.24615 43.9871 7.88786C43.9391 7.52684 43.7411 7.20137 43.4442 6.98256Z" fill="#FCFCFC"/>
</svg>
