<svg width="14" height="14" viewBox="0 0 12 12" fill="none" xmlns="http://www.w3.org/2000/svg">
<path d="M5.99864 1.21656C4.72935 1.21415 3.51145 1.71775 2.61454 2.61588C1.71729 3.51225 1.21272 4.72828 1.21179 5.99655C1.20989 8.63835 3.34999 10.7815 5.99178 10.7834C8.63358 10.7853 10.7767 8.6452 10.7786 6.00341C10.7805 3.36161 8.64043 1.21846 5.99864 1.21656ZM8.89889 8.90023C7.29716 10.502 4.70025 10.5021 3.09847 8.90032C1.49669 7.29858 1.49665 4.70167 3.09838 3.09989C4.70012 1.49812 7.29703 1.49808 8.89881 3.09981C9.66928 3.86813 10.1016 4.91191 10.1002 5.99998C10.1002 7.0878 9.6681 8.13103 8.89889 8.90023Z" fill="#888888"/>
<path d="M5.99865 -0.000118685C4.40706 -0.00181073 2.88046 0.630888 1.75668 1.75792C0.631557 2.88343 -0.000338274 4.40982 1.35856e-07 6.00123C0.000761557 9.31494 2.68765 12.0006 6.00135 11.9999C9.31506 11.9991 12.0008 9.31223 12 5.99853C11.9992 2.68482 9.31235 -0.000880106 5.99865 -0.000118685ZM9.75647 9.76109C7.6791 11.8374 4.31184 11.8366 2.23553 9.75919C0.159222 7.68182 0.160068 4.31456 2.23744 2.23825C4.31481 0.161937 7.68206 0.162783 9.75838 2.24015C10.7568 3.23643 11.317 4.58947 11.3151 5.99988C11.315 7.41071 10.7544 8.76371 9.75647 9.76109Z" fill="#888888"/>
<path d="M7.52489 6.00171C7.16253 5.77988 6.75805 5.63584 6.33707 5.57869V4.12692C6.5388 4.14819 6.73783 4.19016 6.93098 4.25213C7.10369 4.31643 7.28216 4.36401 7.46397 4.39426C7.72793 4.39426 7.85991 4.25268 7.85991 3.96956C7.85991 3.83305 7.75784 3.71181 7.55365 3.60577C7.16829 3.44295 6.75538 3.35505 6.33707 3.34688V2.82742C6.33707 2.64054 6.18554 2.48901 5.99866 2.48901C5.81177 2.48901 5.66025 2.64054 5.66025 2.82742V3.36888C5.29121 3.42603 4.94227 3.57434 4.64502 3.80035C4.2619 4.05868 4.03233 4.49058 4.0325 4.95264C4.02628 5.29062 4.17302 5.61334 4.43182 5.83081C4.56786 5.93208 4.71926 6.01093 4.88021 6.06431C5.04096 6.12442 5.20615 6.17197 5.37429 6.20644C5.45437 6.22112 5.54857 6.2369 5.65686 6.25382V7.8325C5.43398 7.80192 5.21427 7.75154 5.00035 7.68191C4.79164 7.6078 4.57717 7.5512 4.35906 7.5127C4.09849 7.50708 3.9682 7.66275 3.9682 7.97971C3.9682 8.15344 4.18364 8.31021 4.61456 8.4501C4.95344 8.56029 5.30471 8.62793 5.66025 8.65145V9.1726C5.66025 9.35949 5.81177 9.51101 5.99866 9.51101C6.18554 9.51101 6.33707 9.35949 6.33707 9.1726V8.6413C6.74151 8.60915 7.12945 8.46698 7.4589 8.23013C7.83423 7.9545 8.04896 7.5111 8.0325 7.0457C8.0325 6.56854 7.8633 6.22053 7.52489 6.00171ZM5.66025 5.47717L5.56549 5.46025C5.45729 5.43791 5.35094 5.40737 5.24739 5.36888C5.14295 5.34143 5.04955 5.28233 4.98005 5.19967C4.92759 5.11689 4.90166 5.02011 4.9056 4.92218C4.90648 4.68478 5.0317 4.46516 5.23554 4.3435C5.36367 4.25297 5.5078 4.18753 5.66025 4.1506V5.47717ZM7.15771 7.08292C7.16143 7.31799 7.03521 7.53597 6.82945 7.64976C6.67882 7.74189 6.51152 7.8034 6.33707 7.83081V6.36888C6.51943 6.4067 6.69625 6.46753 6.86329 6.54993C7.05852 6.65344 7.17404 6.86258 7.15771 7.08292Z" fill="#888888"/>
</svg>
