<svg width="20" height="22" viewBox="0 0 20 22" fill="none" xmlns="http://www.w3.org/2000/svg">
<path d="M5 9.73523V5.73523C5 4.40915 5.52678 3.13738 6.46447 2.1997C7.40215 1.26201 8.67392 0.735229 10 0.735229C11.3261 0.735229 12.5979 1.26201 13.5355 2.1997C14.4732 3.13738 15 4.40915 15 5.73523V9.73523M3 9.73523H17C18.1046 9.73523 19 10.6307 19 11.7352V18.7352C19 19.8398 18.1046 20.7352 17 20.7352H3C1.89543 20.7352 1 19.8398 1 18.7352V11.7352C1 10.6307 1.89543 9.73523 3 9.73523Z" stroke="white" stroke-linecap="round" stroke-linejoin="round"/>
</svg>
