<svg width="20" height="24" viewBox="0 0 20 24" fill="none" xmlns="http://www.w3.org/2000/svg">
<path d="M18.5989 9.69678C18.5989 16.6968 9.59888 22.6968 9.59888 22.6968C9.59888 22.6968 0.598877 16.6968 0.598877 9.69678C0.598877 7.30983 1.54709 5.02064 3.23492 3.33282C4.92274 1.64499 7.21193 0.696777 9.59888 0.696777C11.9858 0.696777 14.275 1.64499 15.9628 3.33282C17.6507 5.02064 18.5989 7.30983 18.5989 9.69678Z" stroke="white" stroke-linecap="round" stroke-linejoin="round"/>
<path d="M9.59888 12.6968C11.2557 12.6968 12.5989 11.3536 12.5989 9.69678C12.5989 8.03992 11.2557 6.69678 9.59888 6.69678C7.94202 6.69678 6.59888 8.03992 6.59888 9.69678C6.59888 11.3536 7.94202 12.6968 9.59888 12.6968Z" stroke="white" stroke-linecap="round" stroke-linejoin="round"/>
</svg>
