<svg width="6" height="24" viewBox="0 0 6 24" fill="none" xmlns="http://www.w3.org/2000/svg">
<path d="M5.12193 0.878677C6.2935 2.05025 6.2935 3.94975 5.12193 5.12132C3.95036 6.29289 2.05086 6.29289 0.879288 5.12132C-0.292282 3.94975 -0.292282 2.05025 0.879288 0.878677C2.05081 -0.292892 3.95031 -0.292892 5.12193 0.878677Z" fill="white"/>
<path d="M5.12193 9.87868C6.2935 11.0502 6.2935 12.9497 5.12193 14.1213C3.95036 15.2929 2.05086 15.2929 0.879288 14.1213C-0.292282 12.9497 -0.292282 11.0502 0.879288 9.87868C2.05081 8.70711 3.95031 8.70711 5.12193 9.87868Z" fill="white"/>
<path d="M5.12193 18.8787C6.2935 20.0502 6.2935 21.9497 5.12193 23.1213C3.95036 24.2929 2.05086 24.2929 0.879288 23.1213C-0.292282 21.9497 -0.292282 20.0502 0.879288 18.8787C2.05081 17.7071 3.95031 17.7071 5.12193 18.8787Z" fill="white"/>
</svg>
