<svg width="32" height="31" viewBox="0 0 32 31" fill="none" xmlns="http://www.w3.org/2000/svg">
<path d="M14.3592 13.807C10.5526 13.807 7.45569 10.7101 7.45569 6.90349C7.45569 3.09687 10.5526 0 14.3592 0C18.1658 0 21.2627 3.09687 21.2627 6.90349C21.2627 10.7101 18.1658 13.807 14.3592 13.807Z" fill="#6B6C6D"/>
<path d="M17.0372 18.8656C17.0372 17.3373 17.4663 15.9074 18.2101 14.6898C17.0487 15.2666 15.7415 15.5924 14.3591 15.5924C12.5661 15.5924 10.8984 15.0464 9.51307 14.1121C7.80017 14.776 6.2288 15.7957 4.89077 17.1338C2.36159 19.6629 0.96875 23.0255 0.96875 26.6022V29.5779C0.96875 30.0709 1.36844 30.4706 1.86144 30.4706H26.8568C27.3499 30.4706 27.7495 30.0709 27.7495 29.5779V26.6022C27.7495 26.5486 27.7481 26.4948 27.7474 26.441C26.9099 26.7378 26.0093 26.8998 25.0715 26.8998C20.6414 26.8998 17.0372 23.2957 17.0372 18.8656Z" fill="#6B6C6D"/>
<path d="M25.0715 12.6167C21.6259 12.6167 18.8226 15.4199 18.8226 18.8656C18.8226 22.3112 21.6259 25.1144 25.0715 25.1144C28.5171 25.1144 31.3203 22.3112 31.3203 18.8656C31.3203 15.4199 28.5171 12.6167 25.0715 12.6167ZM26.8569 19.7582H25.9642V20.6509C25.9642 21.1439 25.5645 21.5436 25.0715 21.5436C24.5785 21.5436 24.1788 21.1439 24.1788 20.6509V19.7582H23.2861C22.7931 19.7582 22.3934 19.3586 22.3934 18.8656C22.3934 18.3725 22.7931 17.9729 23.2861 17.9729H24.1788V17.0802C24.1788 16.5872 24.5785 16.1875 25.0715 16.1875C25.5645 16.1875 25.9642 16.5872 25.9642 17.0802V17.9729H26.8569C27.3499 17.9729 27.7496 18.3725 27.7496 18.8656C27.7496 19.3586 27.3499 19.7582 26.8569 19.7582Z" fill="#6B6C6D"/>
</svg>
