<svg width="12" height="16" viewBox="0 0 12 16" fill="none" xmlns="http://www.w3.org/2000/svg">
<path d="M6.0136 0H5.98631C2.6854 0 0 2.24718 0 5.00929C0 6.81984 0.985028 9.20934 2.92771 12.1115C4.36801 14.2631 5.8285 15.911 5.84313 15.9274C5.88378 15.9731 5.94786 16 6.01575 16C6.01768 16 6.01965 16 6.02158 15.9999C6.09163 15.9983 6.15629 15.9683 6.19515 15.9194C6.20955 15.9012 7.65963 14.0681 9.09015 11.8261C11.021 8.79999 12 6.50643 12 5.00929C11.9999 2.24714 9.31442 0 6.0136 0ZM8.77681 5.1317C8.77681 6.41346 7.53112 7.45618 5.99991 7.45618C4.46875 7.45618 3.22306 6.41342 3.22306 5.1317C3.22306 3.84998 4.46875 2.80722 5.99991 2.80722C7.53112 2.80722 8.77681 3.84998 8.77681 5.1317Z" fill="#A7A7A7"/>
</svg>
