<svg width="16" height="26" viewBox="0 0 16 26" fill="none" xmlns="http://www.w3.org/2000/svg">
<path d="M8.01813 0H7.98175C3.58054 0 0 3.57934 0 7.97888C0 10.8628 1.31337 14.6688 3.90362 19.2914C5.82401 22.7185 7.77133 25.3433 7.79084 25.3694C7.84504 25.4422 7.93048 25.4851 8.021 25.4851C8.02357 25.4851 8.02621 25.4851 8.02878 25.485C8.12217 25.4824 8.20838 25.4346 8.2602 25.3567C8.2794 25.3277 10.2128 22.4079 12.1202 18.8368C14.6946 14.0168 16 10.3636 16 7.97888C15.9998 3.57928 12.4192 0 8.01813 0ZM11.7024 8.17386C11.7024 10.2155 10.0415 11.8763 7.99988 11.8763C5.95833 11.8763 4.29741 10.2154 4.29741 8.17386C4.29741 6.13231 5.95833 4.47139 7.99988 4.47139C10.0415 4.47139 11.7024 6.13231 11.7024 8.17386Z" fill="#4C4C4C"/>
</svg>
