<svg width="18" height="18" viewBox="0 0 18 18" fill="none" xmlns="http://www.w3.org/2000/svg">
<path d="M16.5653 8.6782C16.5682 9.79979 16.3059 10.9062 15.7997 11.9073C15.1995 13.107 14.2768 14.1161 13.1349 14.8215C11.9931 15.5269 10.6772 15.9008 9.33463 15.9013C8.21186 15.9042 7.10428 15.6422 6.1021 15.1365L1.2533 16.7511L2.86956 11.9073C2.36336 10.9062 2.10104 9.79979 2.10396 8.6782C2.10448 7.33705 2.47878 6.02252 3.18492 4.88187C3.89107 3.74121 4.90117 2.81948 6.1021 2.2199C7.10428 1.71423 8.21186 1.45218 9.33463 1.4551H9.75996C11.533 1.55282 13.2078 2.30043 14.4634 3.55478C15.7191 4.80913 16.4675 6.48208 16.5653 8.25331V8.6782Z" stroke="#999999" stroke-linecap="round" stroke-linejoin="round"/>
</svg>
