<svg width="22" height="31" viewBox="0 0 22 31" fill="none" xmlns="http://www.w3.org/2000/svg">
<path d="M11.4576 21.1829C9.8467 21.1829 8.46817 20.6094 7.32125 19.4629C6.17453 18.3164 5.6011 16.9372 5.6011 15.3265V5.95566C5.6011 4.34494 6.17408 2.96628 7.32125 1.81923C8.46817 0.672444 9.8467 0.0986328 11.4576 0.0986328C13.0682 0.0986328 14.4469 0.672444 15.5939 1.81923C16.741 2.96609 17.3144 4.34494 17.3144 5.95566V15.3265C17.3144 16.9371 16.7407 18.3164 15.5939 19.4629C14.4471 20.6094 13.0682 21.1829 11.4576 21.1829Z" fill="#6B6C6D"/>
<path d="M1.2633 12.1601C1.49447 11.9282 1.76961 11.8123 2.08687 11.8123C2.40381 11.8123 2.67831 11.9282 2.91044 12.1601C3.14205 12.3919 3.25795 12.6664 3.25795 12.9835V15.3264C3.25795 17.5838 4.06043 19.5146 5.665 21.1191C7.26906 22.7237 9.20012 23.526 11.4576 23.526C13.715 23.526 15.6459 22.7237 17.2505 21.1191C18.855 19.5151 19.6571 17.5839 19.6571 15.3264V12.9835C19.6571 12.6664 19.7731 12.3919 20.0048 12.1601C20.2367 11.9282 20.5109 11.8123 20.8284 11.8123C21.1459 11.8123 21.4204 11.9282 21.6522 12.1601C21.8841 12.3919 22 12.6664 22 12.9835V15.3264C22 18.023 21.1 20.3689 19.3004 22.3637C17.5007 24.3585 15.277 25.5024 12.629 25.795V28.2112H17.3144C17.6317 28.2112 17.9062 28.3273 18.138 28.5592C18.3699 28.7909 18.4858 29.0655 18.4858 29.3828C18.4858 29.6995 18.3699 29.9747 18.138 30.2063C17.9062 30.438 17.6317 30.5543 17.3144 30.5543H5.60109C5.28389 30.5543 5.009 30.4381 4.77752 30.2063C4.54539 29.9747 4.42936 29.6996 4.42936 29.3828C4.42936 29.0656 4.54539 28.7909 4.77752 28.5592C5.00894 28.3273 5.28382 28.2112 5.60109 28.2112H10.2859V25.795C7.63843 25.5024 5.41486 24.3585 3.61502 22.3637C1.81519 20.3689 0.914886 18.023 0.914886 15.3264V12.9835C0.914886 12.6665 1.03111 12.3922 1.2633 12.1601Z" fill="#6B6C6D"/>
</svg>
