<svg width="18" height="18" viewBox="0 0 18 18" fill="none" xmlns="http://www.w3.org/2000/svg">
<path d="M17.857 16.5872L12.9772 11.6982C14.1086 10.2414 14.6423 8.40811 14.4695 6.57165C14.2968 4.73518 13.4306 3.03359 12.0473 1.81333C10.6641 0.593071 8.86773 -0.0541129 7.02406 0.0035467C5.18039 0.0612063 3.428 0.819375 2.12369 2.12369C0.819375 3.428 0.0612063 5.18039 0.0035467 7.02406C-0.0541129 8.86773 0.593071 10.6641 1.81333 12.0473C3.03359 13.4306 4.73518 14.2968 6.57165 14.4695C8.40811 14.6423 10.2414 14.1086 11.6982 12.9772L16.5872 17.857C16.7638 17.9689 16.9732 18.0174 17.1811 17.9944C17.3889 17.9714 17.5827 17.8783 17.7305 17.7305C17.8783 17.5827 17.9714 17.3889 17.9944 17.1811C18.0174 16.9732 17.9689 16.7638 17.857 16.5872ZM1.83429 7.26312C1.83429 6.1894 2.15269 5.13979 2.74921 4.24703C3.34574 3.35426 4.19361 2.65843 5.1856 2.24754C6.17759 1.83664 7.26914 1.72913 8.32223 1.93861C9.37532 2.14808 10.3426 2.66512 11.1019 3.42436C11.8611 4.18359 12.3782 5.15092 12.5876 6.20401C12.7971 7.2571 12.6896 8.34865 12.2787 9.34064C11.8678 10.3326 11.172 11.1805 10.2792 11.777C9.38645 12.3736 8.33684 12.6919 7.26312 12.6919C5.8238 12.6903 4.4439 12.1178 3.42615 11.1001C2.4084 10.0823 1.83592 8.70244 1.83429 7.26312Z" fill="white"/>
</svg>
