<svg width="29" height="21" viewBox="0 0 29 21" fill="none" xmlns="http://www.w3.org/2000/svg">
<path d="M28.1726 19.9764C28.0333 20.0299 27.8994 20.0567 27.7708 20.0567C27.4814 20.0567 27.2406 19.9547 27.0476 19.7513L20.5709 13.2906V15.9423C20.5709 17.2174 20.1182 18.3074 19.2128 19.2128C18.3074 20.1181 17.2175 20.5708 15.9423 20.5708H4.62838C3.35353 20.5708 2.26331 20.1181 1.35783 19.2128C0.452684 18.3074 0 17.2174 0 15.9423V4.62823C0 3.3532 0.452684 2.26326 1.35788 1.3579C2.26336 0.452532 3.35359 -0.000148773 4.62844 -0.000148773H15.9424C17.2176 -0.000148773 18.3075 0.452532 19.2129 1.3579C20.1183 2.26326 20.571 3.35315 20.571 4.62823V7.2962L27.0477 0.819431C27.2407 0.616055 27.4815 0.514114 27.7709 0.514114C27.8995 0.514114 28.0335 0.540909 28.1727 0.594271C28.5908 0.776482 28.7996 1.09244 28.7996 1.54242V19.028C28.7994 19.4782 28.5906 19.7942 28.1726 19.9764Z" fill="#6B6C6D"/>
</svg>
